<svg xmlns="http://www.w3.org/2000/svg" width="200" height="52.472" viewBox="0 0 200 52.472">
  <g id="wicklog_logo" data-name="wicklog logo" transform="translate(-0.05)">
    <path id="Path_7" data-name="Path 7" d="M242.923,470.036,234,432.62h7.714L247.73,459l7.012-26.383h6.871L268.625,459l6.016-26.383h7.735L273.4,470.036H265.77l-7.582-26.383-7.631,26.383Z" transform="translate(-233.95 -429.964)" fill="#fff"/>
    <path id="Path_8" data-name="Path 8" d="M401.348,482.821a15.292,15.292,0,0,1-4.571-.654,8.589,8.589,0,0,1-3.615-2.181,10.2,10.2,0,0,1-2.349-4.178,22.445,22.445,0,0,1-.836-6.664,25.8,25.8,0,0,1,.758-6.837,10.105,10.105,0,0,1,2.248-4.3,8.136,8.136,0,0,1,3.664-2.237,16.98,16.98,0,0,1,4.9-.654,39.005,39.005,0,0,1,4.724.274,32.082,32.082,0,0,1,4.742.981v4.273h-7.144a8.685,8.685,0,0,0-3.738.68,4.073,4.073,0,0,0-2.046,2.516,16.677,16.677,0,0,0-.636,5.254,15.784,15.784,0,0,0,.636,5.128,3.761,3.761,0,0,0,2.069,2.364,9.977,9.977,0,0,0,3.818.606H411.4v4.221a26.012,26.012,0,0,1-2.932.732,35.334,35.334,0,0,1-3.509.5C403.737,482.76,402.528,482.821,401.348,482.821Z" transform="translate(-321.768 -442.601)" fill="#fff"/>
    <path id="Path_9" data-name="Path 9" d="M453,468.567V430h7.451v20.822h3.186l5.969-9.427h7.582l-7.972,12.8,8.765,14.371H470.4l-6.871-10.957H460.46v10.957Z" transform="translate(-357.261 -428.493)" fill="#fff"/>
    <path id="Path_10" data-name="Path 10" d="M529.933,468.651a10.773,10.773,0,0,1-4.777-.933,5.885,5.885,0,0,1-2.8-2.883,11.866,11.866,0,0,1-.912-5.031V430h7.481v28.706a7.643,7.643,0,0,0,.3,2.4,2.339,2.339,0,0,0,.938,1.288,4.076,4.076,0,0,0,1.588.556l2.073.3v5.408Z" transform="translate(-395.766 -428.493)" fill="#fff"/>
    <path id="Path_11" data-name="Path 11" d="M572.734,482.742a20.961,20.961,0,0,1-5.7-.68,8.234,8.234,0,0,1-3.865-2.29,9.687,9.687,0,0,1-2.192-4.273,26.984,26.984,0,0,1-.679-6.589,28.311,28.311,0,0,1,.679-6.811,9.142,9.142,0,0,1,2.192-4.226,8.2,8.2,0,0,1,3.892-2.181,22.665,22.665,0,0,1,5.7-.628,21.971,21.971,0,0,1,5.765.654,8.337,8.337,0,0,1,3.865,2.181,9.143,9.143,0,0,1,2.192,4.226,28.081,28.081,0,0,1,.683,6.763,28.847,28.847,0,0,1-.657,6.716,9.28,9.28,0,0,1-2.122,4.248,8.061,8.061,0,0,1-3.914,2.22A22.459,22.459,0,0,1,572.734,482.742Zm0-5.935a8.867,8.867,0,0,0,2.3-.249,2.713,2.713,0,0,0,1.517-1.029,5.829,5.829,0,0,0,.876-2.394,29.833,29.833,0,0,0,0-8.473,5.8,5.8,0,0,0-.877-2.363,2.745,2.745,0,0,0-1.516-1.033,9.091,9.091,0,0,0-2.3-.249,8.836,8.836,0,0,0-2.248.249,2.857,2.857,0,0,0-1.538,1.033,5.336,5.336,0,0,0-.877,2.364,32.138,32.138,0,0,0,0,8.473,5.373,5.373,0,0,0,.877,2.389,2.827,2.827,0,0,0,1.538,1.029,8.625,8.625,0,0,0,2.248.249Z" transform="translate(-417.674 -442.569)" fill="#fff"/>
    <path id="Path_12" data-name="Path 12" d="M637.708,495.681a12.835,12.835,0,0,1-4.571-.758,7.223,7.223,0,0,1-3.16-2.192,5.483,5.483,0,0,1-1.161-3.563v-.806a5.759,5.759,0,0,1,1.236-3.716,7.889,7.889,0,0,1,3.226-2.358,10.915,10.915,0,0,1,4.195-.806l2.222,2.323a5.141,5.141,0,0,0-1.972.355,2.949,2.949,0,0,0-1.337,1.034,2.879,2.879,0,0,0-.482,1.7v.552a2.629,2.629,0,0,0,1.013,2.227,4.742,4.742,0,0,0,2.879.758h5.159a5.5,5.5,0,0,0,3.008-.732A2.446,2.446,0,0,0,649.1,487.5v-.836a2.683,2.683,0,0,0-.439-1.538,2.735,2.735,0,0,0-1.263-.986,5.857,5.857,0,0,0-2.248-.355h-6.022q-4.549,0-6.745-1.692a5.082,5.082,0,0,1-2.192-4.172,5.141,5.141,0,0,1,1.188-3.462,5.834,5.834,0,0,1,3.3-1.819,7.621,7.621,0,0,1-3.945-4.773,11.021,11.021,0,0,1-.4-3.008,9.172,9.172,0,0,1,1.236-4.952,7.363,7.363,0,0,1,3.742-2.932,17.707,17.707,0,0,1,6.293-.986h14.705v4.094l-4.142.758a10.34,10.34,0,0,1,.907,1.187,6.628,6.628,0,0,1,.785,1.755,9.473,9.473,0,0,1,.328,2.7,8.839,8.839,0,0,1-.986,4.194,7.074,7.074,0,0,1-3.133,2.985,12.469,12.469,0,0,1-5.7,1.109h-4.821a5.263,5.263,0,0,0-2.222.4,1.477,1.477,0,0,0-.877,1.468,1.188,1.188,0,0,0,.732,1.187,3.947,3.947,0,0,0,1.644.328h7.476a15.387,15.387,0,0,1,5.307.806,6.575,6.575,0,0,1,3.342,2.6,8.631,8.631,0,0,1,1.161,4.729v.806a8.078,8.078,0,0,1-2.528,6.289q-2.529,2.3-7.784,2.3Zm2.932-26.487h2.883a4.861,4.861,0,0,0,2.4-.478,2.59,2.59,0,0,0,1.17-1.315,5.292,5.292,0,0,0,.328-1.946,5.144,5.144,0,0,0-.439-2.274,2.49,2.49,0,0,0-1.24-1.214,5.041,5.041,0,0,0-2.02-.355h-2.831a4.278,4.278,0,0,0-2.879.836,3.676,3.676,0,0,0-.96,2.906,3.933,3.933,0,0,0,.907,2.906,3.593,3.593,0,0,0,2.683.94Z" transform="translate(-456.261 -443.229)" fill="#fff"/>
    <rect id="Rectangle_70" data-name="Rectangle 70" width="9.295" height="24.297" transform="translate(52.745 13.292)" fill="#fff"/>
    <path id="Path_13" data-name="Path 13" d="M0,40.5V0" transform="translate(57.384)" fill="#fff" stroke="#fff" stroke-width="3"/>
  </g>
</svg>
